# xmcd
#
# Track frame offsets:
#	150
#	11325
#	22650
#	32600
#	43505
#	55430
#	67965
#	79430
#	89792
#	101257
#	110780
#	123392
#	134865
#	148730
#
# Disc length: 2141 seconds
#
# Revision: 1
# Processed by: cddbd v1.5.2PL0 Copyright (c) Steve Scherf et al.
# Submitted via: EasyCDDAExtractor 7.0.3.1
#
DISCID=c3085b0e
DTITLE=Various Artist - Signature Series
DYEAR=1900
DGENRE=Country
TTITLE0=Jean Shepard - Slippin Away
TTITLE1=Jean Shepard and Ferlin Husky - A Dear John Letter
TTITLE2=Jean Shepard - Second Fiddle ( To An Old Guitar) 
TTITLE3=Jean Shepard - Forgive Me, John
TTITLE4=Jean Shepard - A Satisfied Mind
TTITLE5=Jean Shepard - Then He Touched Me
TTITLE6=Jean Shepard and Ray Pillow - I'll Take the Dog
TTITLE7=Jean Shepard - If Teardrops Were Silver
TTITLE8=Jean Shepard - I Thought of You
TTITLE9=Jean Shepard - Another Lonely Night
TTITLE10=Jean Shepard - Beautiful Lies
TTITLE11=Jean Shepard - All the Time
TTITLE12=Jean Shepard - Poor Sweet Baby
TTITLE13=Jean Shepard - Heart, We Did All That We Could
EXTD=
EXTT0=
EXTT1=
EXTT2=
EXTT3=
EXTT4=
EXTT5=
EXTT6=
EXTT7=
EXTT8=
EXTT9=
EXTT10=
EXTT11=
EXTT12=
EXTT13=
PLAYORDER=
